
<svg width="154" height="47" viewBox="0 0 154 47" fill="none" xmlns="http://www.w3.org/2000/svg">
<path d="M5.56171 0.604492H149.06C151.589 0.604492 153.63 2.66357 153.63 5.21437V41.7861C153.63 44.3369 151.589 46.396 149.06 46.396H5.56171C3.03297 46.396 0.991699 44.3369 0.991699 41.7861V5.21437C0.991699 2.66357 3.03297 0.604492 5.56171 0.604492Z" fill="white"/>
<path d="M36.3794 31.5624C35.9706 32.5007 35.4936 33.372 34.9144 34.1428C34.1308 35.2152 33.5175 35.9525 33.0405 36.3882C32.2909 37.0584 31.4732 37.4271 30.6214 37.4271C30.0082 37.4271 29.2586 37.2595 28.3727 36.8909C27.4869 36.5557 26.7033 36.3547 25.9537 36.3547C25.1701 36.3547 24.3524 36.5222 23.4665 36.8909C22.5807 37.226 21.8652 37.4271 21.32 37.4606C20.5023 37.4941 19.6846 37.1255 18.8329 36.3882C18.3218 35.9525 17.6404 35.1482 16.8567 34.0758C16.005 32.9029 15.3235 31.5624 14.7784 30.0208C14.2673 28.3451 13.9607 26.703 13.9607 25.1614C13.9607 23.3853 14.3695 21.8102 15.1532 20.5367C15.7665 19.4978 16.5842 18.66 17.6404 18.0567C18.6625 17.4535 19.7868 17.1519 20.9793 17.1184C21.6267 17.1184 22.5125 17.3195 23.5687 17.7216C24.6249 18.1238 25.3064 18.3248 25.613 18.3248C25.8515 18.3248 26.6011 18.0903 27.8958 17.6211C29.1223 17.1854 30.1444 17.0178 30.9962 17.0849C33.279 17.2524 35.0166 18.1573 36.1409 19.7659C34.0967 20.9723 33.0746 22.6815 33.1086 24.8933C33.1427 26.6025 33.756 28.01 34.9825 29.1494C35.5277 29.6856 36.175 30.0878 36.8564 30.3559C36.7202 30.758 36.5498 31.1602 36.3794 31.5624ZM31.1325 11.2537C31.1325 12.5942 30.6214 13.8341 29.6334 15.0071C28.4409 16.3811 26.9758 17.1854 25.4086 17.0514C25.3745 16.8838 25.3745 16.7162 25.3745 16.5487C25.3745 15.2752 25.9537 13.9012 26.9418 12.7617C27.4528 12.192 28.1002 11.7228 28.8497 11.3542C29.6334 10.9856 30.3489 10.7845 31.0644 10.751C31.1325 10.885 31.1325 11.0861 31.1325 11.2537Z" fill="#003553"/>
<path d="M44.8243 11.7774V11.0564H49.12V11.7774H47.3882V16.6069H46.5535V11.7774H44.8243ZM49.8823 16.6069H48.9933L50.9907 11.0564H51.9583L53.9557 16.6069H53.0667L51.4975 12.0646H51.4542L49.8823 16.6069ZM50.0313 14.4334H52.915V15.138H50.0313V14.4334ZM51.8065 10.4819H51.1669L51.1452 9.92901C51.3367 9.91997 51.4722 9.89468 51.5517 9.85312C51.6312 9.80976 51.6701 9.74742 51.6683 9.66612C51.6701 9.56855 51.615 9.49899 51.503 9.45743C51.3927 9.41588 51.2581 9.3951 51.0991 9.3951L51.1235 8.94792C51.5337 8.94792 51.8444 9.01296 52.0558 9.14305C52.269 9.27314 52.3747 9.4484 52.3729 9.66883C52.3747 9.8477 52.316 9.9796 52.1968 10.0645C52.0793 10.1476 51.9492 10.2 51.8065 10.2217V10.4819ZM55.5947 11.0564V16.6069H54.7572V11.0564H55.5947ZM63.8343 10.7665H64.5038C64.5038 11.126 64.4514 11.4296 64.3466 11.6771C64.2436 11.9246 64.0738 12.1134 63.8371 12.2435C63.6022 12.3718 63.2869 12.4359 62.8912 12.4359V11.8776C63.1514 11.8776 63.3492 11.8352 63.4847 11.7503C63.6221 11.6635 63.7142 11.538 63.7612 11.3735C63.81 11.2073 63.8343 11.005 63.8343 10.7665ZM62.4034 11.0564H63.2435V14.7071C63.2435 15.0955 63.1523 15.4397 62.9698 15.7397C62.7873 16.0378 62.5307 16.2727 62.2001 16.4443C61.8695 16.6142 61.4819 16.6991 61.0374 16.6991C60.5948 16.6991 60.2081 16.6142 59.8775 16.4443C59.5468 16.2727 59.2903 16.0378 59.1078 15.7397C58.9253 15.4397 58.834 15.0955 58.834 14.7071V11.0564H59.6715V14.6393C59.6715 14.8905 59.7266 15.1136 59.8368 15.3087C59.9488 15.5039 60.1069 15.6575 60.3111 15.7695C60.5153 15.8797 60.7574 15.9348 61.0374 15.9348C61.3193 15.9348 61.5623 15.8797 61.7665 15.7695C61.9724 15.6575 62.1296 15.5039 62.238 15.3087C62.3483 15.1136 62.4034 14.8905 62.4034 14.6393V11.0564ZM60.7041 10.5009L61.3383 9.25146H62.192L61.3518 10.5009H60.7041ZM69.9323 11.0564V16.6069H69.1626L66.3413 12.5362H66.2898V16.6069H65.4523V11.0564H66.2275L69.0515 15.1326H69.103V11.0564H69.9323ZM74.9102 12.8099C74.8579 12.6455 74.7874 12.4983 74.6989 12.3682C74.6121 12.2363 74.5082 12.1243 74.3872 12.0321C74.2661 11.9382 74.1279 11.8668 73.9725 11.818C73.8189 11.7692 73.65 11.7448 73.4657 11.7448C73.1531 11.7448 72.8713 11.8252 72.6201 11.986C72.369 12.1469 72.1702 12.3826 72.0239 12.6934C71.8793 13.0024 71.8071 13.3809 71.8071 13.829C71.8071 14.2789 71.8802 14.6592 72.0266 14.97C72.1729 15.2807 72.3735 15.5165 72.6283 15.6773C72.883 15.8381 73.173 15.9185 73.4982 15.9185C73.8 15.9185 74.0629 15.8571 74.2869 15.7342C74.5128 15.6114 74.6871 15.4379 74.81 15.2139C74.9346 14.988 74.997 14.7224 74.997 14.4171L75.2138 14.4577H73.6256V13.7666H75.8073V14.3981C75.8073 14.8643 75.708 15.269 75.5092 15.6123C75.3123 15.9538 75.0394 16.2176 74.6907 16.4037C74.3438 16.5898 73.9463 16.6828 73.4982 16.6828C72.9959 16.6828 72.5551 16.5672 72.1757 16.3359C71.798 16.1046 71.5035 15.7767 71.2921 15.3521C71.0807 14.9257 70.975 14.4198 70.975 13.8344C70.975 13.3917 71.0365 12.9942 71.1593 12.6419C71.2822 12.2896 71.4547 11.9906 71.677 11.7448C71.901 11.4973 72.1639 11.3085 72.4657 11.1784C72.7692 11.0465 73.1007 10.9806 73.4603 10.9806C73.7602 10.9806 74.0394 11.0248 74.2977 11.1134C74.5579 11.2019 74.7892 11.3275 74.9916 11.4901C75.1957 11.6527 75.3647 11.846 75.4984 12.0701C75.6321 12.2923 75.7224 12.5389 75.7694 12.8099H74.9102ZM80.687 16.6069H78.8902V11.0564H80.744C81.2878 11.0564 81.7549 11.1676 82.1451 11.3898C82.5354 11.6102 82.8344 11.9273 83.0422 12.3411C83.2518 12.753 83.3566 13.2472 83.3566 13.8236C83.3566 14.4017 83.2509 14.8986 83.0395 15.3142C82.8299 15.7297 82.5264 16.0495 82.1289 16.2736C81.7314 16.4958 81.2508 16.6069 80.687 16.6069ZM79.7276 15.8752H80.641C81.0638 15.8752 81.4152 15.7957 81.6952 15.6367C81.9753 15.4759 82.1849 15.2437 82.324 14.9402C82.4631 14.6348 82.5327 14.2626 82.5327 13.8236C82.5327 13.3881 82.4631 13.0186 82.324 12.7151C82.1867 12.4115 81.9816 12.1812 81.7088 12.024C81.436 11.8668 81.0972 11.7882 80.6925 11.7882H79.7276V15.8752ZM87.9673 11.0564H88.8075V14.7071C88.8075 15.0955 88.7162 15.4397 88.5337 15.7397C88.3513 16.0378 88.0947 16.2727 87.764 16.4443C87.4334 16.6142 87.0458 16.6991 86.6014 16.6991C86.1587 16.6991 85.772 16.6142 85.4414 16.4443C85.1108 16.2727 84.8542 16.0378 84.6717 15.7397C84.4892 15.4397 84.398 15.0955 84.398 14.7071V11.0564H85.2354V14.6393C85.2354 14.8905 85.2905 15.1136 85.4007 15.3087C85.5128 15.5039 85.6709 15.6575 85.875 15.7695C86.0792 15.8797 86.3213 15.9348 86.6014 15.9348C86.8832 15.9348 87.1262 15.8797 87.3304 15.7695C87.5364 15.6575 87.6936 15.5039 87.802 15.3087C87.9122 15.1136 87.9673 14.8905 87.9673 14.6393V11.0564ZM86.6014 18.0975C86.4622 18.0975 86.3421 18.0506 86.2409 17.9566C86.1397 17.8627 86.0891 17.7488 86.0891 17.6151C86.0891 17.4814 86.1397 17.3676 86.2409 17.2736C86.3421 17.1797 86.4622 17.1327 86.6014 17.1327C86.7423 17.1327 86.8624 17.1797 86.9618 17.2736C87.063 17.3676 87.1136 17.4814 87.1136 17.6151C87.1136 17.7488 87.063 17.8627 86.9618 17.9566C86.8624 18.0506 86.7423 18.0975 86.6014 18.0975ZM94.505 11.0564V16.6069H93.7353L90.914 12.5362H90.8625V16.6069H90.025V11.0564H90.8001L93.6242 15.1326H93.6757V11.0564H94.505ZM99.4829 12.8099C99.4305 12.6455 99.3601 12.4983 99.2715 12.3682C99.1848 12.2363 99.0809 12.1243 98.9599 12.0321C98.8388 11.9382 98.7006 11.8668 98.5452 11.818C98.3916 11.7692 98.2227 11.7448 98.0384 11.7448C97.7258 11.7448 97.444 11.8252 97.1928 11.986C96.9417 12.1469 96.7429 12.3826 96.5966 12.6934C96.452 13.0024 96.3798 13.3809 96.3798 13.829C96.3798 14.2789 96.4529 14.6592 96.5993 14.97C96.7456 15.2807 96.9462 15.5165 97.2009 15.6773C97.4557 15.8381 97.7457 15.9185 98.0709 15.9185C98.3727 15.9185 98.6355 15.8571 98.8596 15.7342C99.0854 15.6114 99.2598 15.4379 99.3827 15.2139C99.5073 14.988 99.5697 14.7224 99.5697 14.4171L99.7865 14.4577H98.1983V13.7666H100.38V14.3981C100.38 14.8643 100.281 15.269 100.082 15.6123C99.8849 15.9538 99.6121 16.2176 99.2634 16.4037C98.9165 16.5898 98.519 16.6828 98.0709 16.6828C97.5686 16.6828 97.1278 16.5672 96.7483 16.3359C96.3707 16.1046 96.0762 15.7767 95.8648 15.3521C95.6534 14.9257 95.5477 14.4198 95.5477 13.8344C95.5477 13.3917 95.6092 12.9942 95.732 12.6419C95.8549 12.2896 96.0274 11.9906 96.2497 11.7448C96.4737 11.4973 96.7366 11.3085 97.0383 11.1784C97.3419 11.0465 97.6734 10.9806 98.033 10.9806C98.3329 10.9806 98.6121 11.0248 98.8704 11.1134C99.1306 11.2019 99.3619 11.3275 99.5642 11.4901C99.7684 11.6527 99.9373 11.846 100.071 12.0701C100.205 12.2923 100.295 12.5389 100.342 12.8099H99.4829Z" fill="#003553"/>
<path d="M46.8425 34.6069H44.9023L49.2618 22.4928H51.3735L55.7329 34.6069H53.7928L50.3679 24.6932H50.2733L46.8425 34.6069ZM47.1678 29.863H53.4615V31.4009H47.1678V29.863ZM57.3404 38.014V25.5213H59.0676V26.9942H59.2154C59.318 26.8049 59.4658 26.586 59.6591 26.3376C59.8523 26.0892 60.1205 25.8723 60.4635 25.6869C60.8066 25.4977 61.2601 25.403 61.824 25.403C62.5575 25.403 63.2121 25.5884 63.7878 25.959C64.3636 26.3297 64.8151 26.864 65.1424 27.562C65.4736 28.26 65.6393 29.1 65.6393 30.0819C65.6393 31.0638 65.4756 31.9057 65.1483 32.6076C64.821 33.3056 64.3715 33.8439 63.7997 34.2225C63.2279 34.5971 62.5752 34.7844 61.8418 34.7844C61.2897 34.7844 60.8382 34.6917 60.4872 34.5064C60.1402 34.321 59.8681 34.1041 59.6709 33.8557C59.4737 33.6073 59.3219 33.3864 59.2154 33.1932H59.109V38.014H57.3404ZM59.0735 30.0641C59.0735 30.703 59.1661 31.2629 59.3515 31.744C59.5368 32.2251 59.805 32.6017 60.1559 32.8738C60.5069 33.142 60.9367 33.276 61.4454 33.276C61.9739 33.276 62.4155 33.136 62.7704 32.8561C63.1253 32.5721 63.3935 32.1877 63.5749 31.7026C63.7602 31.2176 63.8529 30.6714 63.8529 30.0641C63.8529 29.4647 63.7622 28.9265 63.5808 28.4493C63.4033 27.9721 63.1352 27.5955 62.7763 27.3195C62.4214 27.0435 61.9778 26.9055 61.4454 26.9055C60.9328 26.9055 60.499 27.0376 60.1441 27.3018C59.7932 27.566 59.527 27.9347 59.3456 28.4079C59.1642 28.8811 59.0735 29.4332 59.0735 30.0641ZM67.6208 38.014V25.5213H69.348V26.9942H69.4959C69.5984 26.8049 69.7463 26.586 69.9395 26.3376C70.1328 26.0892 70.4009 25.8723 70.744 25.6869C71.0871 25.4977 71.5406 25.403 72.1045 25.403C72.838 25.403 73.4926 25.5884 74.0683 25.959C74.644 26.3297 75.0956 26.864 75.4229 27.562C75.7541 28.26 75.9197 29.1 75.9197 30.0819C75.9197 31.0638 75.7561 31.9057 75.4288 32.6076C75.1015 33.3056 74.6519 33.8439 74.0801 34.2225C73.5083 34.5971 72.8557 34.7844 72.1222 34.7844C71.5701 34.7844 71.1186 34.6917 70.7677 34.5064C70.4206 34.321 70.1485 34.1041 69.9514 33.8557C69.7542 33.6073 69.6024 33.3864 69.4959 33.1932H69.3894V38.014H67.6208ZM69.354 30.0641C69.354 30.703 69.4466 31.2629 69.632 31.744C69.8173 32.2251 70.0855 32.6017 70.4364 32.8738C70.7874 33.142 71.2172 33.276 71.7259 33.276C72.2543 33.276 72.696 33.136 73.0509 32.8561C73.4058 32.5721 73.674 32.1877 73.8554 31.7026C74.0407 31.2176 74.1334 30.6714 74.1334 30.0641C74.1334 29.4647 74.0427 28.9265 73.8613 28.4493C73.6838 27.9721 73.4157 27.5955 73.0568 27.3195C72.7019 27.0435 72.2583 26.9055 71.7259 26.9055C71.2133 26.9055 70.7795 27.0376 70.4246 27.3018C70.0736 27.566 69.8074 27.9347 69.626 28.4079C69.4447 28.8811 69.354 29.4332 69.354 30.0641ZM89.0587 25.6751C88.9956 25.1151 88.7353 24.6814 88.2779 24.3738C87.8205 24.0623 87.2447 23.9065 86.5507 23.9065C86.0538 23.9065 85.624 23.9854 85.2612 24.1431C84.8984 24.2969 84.6164 24.5098 84.4153 24.7819C84.2181 25.0501 84.1196 25.3557 84.1196 25.6988C84.1196 25.9866 84.1866 26.2351 84.3207 26.4441C84.4587 26.6531 84.6381 26.8286 84.859 26.9705C85.0837 27.1085 85.3243 27.2249 85.5806 27.3195C85.8369 27.4102 86.0834 27.4851 86.32 27.5443L87.503 27.8519C87.8895 27.9465 88.2858 28.0747 88.6919 28.2364C89.0981 28.398 89.4747 28.611 89.8217 28.8752C90.1688 29.1394 90.4487 29.4667 90.6617 29.8571C90.8786 30.2475 90.987 30.7148 90.987 31.259C90.987 31.9451 90.8096 32.5544 90.4547 33.0867C90.1037 33.6191 89.593 34.0391 88.9226 34.3467C88.2562 34.6543 87.4498 34.808 86.5034 34.808C85.5964 34.808 84.8116 34.6641 84.1491 34.3762C83.4866 34.0884 82.9681 33.6802 82.5935 33.1518C82.2188 32.6195 82.0118 31.9885 81.9724 31.259H83.8061C83.8416 31.6967 83.9835 32.0615 84.2319 32.3533C84.4843 32.6411 84.8057 32.8561 85.1961 32.998C85.5905 33.136 86.0223 33.2051 86.4915 33.2051C87.0081 33.2051 87.4675 33.1242 87.8697 32.9625C88.2759 32.7969 88.5953 32.5682 88.828 32.2764C89.0607 31.9806 89.177 31.6356 89.177 31.2412C89.177 30.8824 89.0745 30.5886 88.8694 30.3599C88.6683 30.1312 88.3942 29.9419 88.0472 29.792C87.7041 29.6422 87.3157 29.5101 86.8819 29.3957L85.4505 29.0053C84.4804 28.7411 83.7114 28.3527 83.1436 27.84C82.5797 27.3274 82.2977 26.6491 82.2977 25.8052C82.2977 25.1073 82.487 24.498 82.8656 23.9775C83.2441 23.4569 83.7568 23.0527 84.4035 22.7649C85.0502 22.4731 85.7797 22.3272 86.5921 22.3272C87.4123 22.3272 88.1359 22.4711 88.7629 22.759C89.3939 23.0468 89.8907 23.4431 90.2535 23.9479C90.6163 24.4487 90.8056 25.0244 90.8214 25.6751H89.0587ZM97.2703 25.5213V26.9409H92.3076V25.5213H97.2703ZM93.6385 23.3446H95.4071V31.9392C95.4071 32.2823 95.4583 32.5406 95.5609 32.7141C95.6634 32.8837 95.7955 33 95.9572 33.0631C96.1228 33.1222 96.3022 33.1518 96.4955 33.1518C96.6374 33.1518 96.7616 33.142 96.8681 33.1222C96.9746 33.1025 97.0574 33.0867 97.1165 33.0749L97.436 34.536C97.3334 34.5754 97.1875 34.6148 96.9982 34.6543C96.809 34.6976 96.5724 34.7213 96.2884 34.7252C95.8231 34.7331 95.3893 34.6503 94.9871 34.4768C94.5849 34.3033 94.2595 34.0351 94.0111 33.6723C93.7627 33.3096 93.6385 32.8541 93.6385 32.306V23.3446ZM102.956 34.7903C102.104 34.7903 101.361 34.5951 100.726 34.2047C100.091 33.8143 99.5984 33.2681 99.2475 32.5662C98.8965 31.8643 98.721 31.0441 98.721 30.1055C98.721 29.1631 98.8965 28.3389 99.2475 27.633C99.5984 26.9271 100.091 26.379 100.726 25.9886C101.361 25.5982 102.104 25.403 102.956 25.403C103.808 25.403 104.551 25.5982 105.186 25.9886C105.821 26.379 106.314 26.9271 106.665 27.633C107.016 28.3389 107.191 29.1631 107.191 30.1055C107.191 31.0441 107.016 31.8643 106.665 32.5662C106.314 33.2681 105.821 33.8143 105.186 34.2047C104.551 34.5951 103.808 34.7903 102.956 34.7903ZM102.962 33.3056C103.514 33.3056 103.972 33.1597 104.334 32.8679C104.697 32.5761 104.965 32.1877 105.139 31.7026C105.316 31.2176 105.405 30.6832 105.405 30.0996C105.405 29.5199 105.316 28.9876 105.139 28.5025C104.965 28.0136 104.697 27.6212 104.334 27.3254C103.972 27.0297 103.514 26.8818 102.962 26.8818C102.406 26.8818 101.945 27.0297 101.578 27.3254C101.215 27.6212 100.945 28.0136 100.768 28.5025C100.594 28.9876 100.507 29.5199 100.507 30.0996C100.507 30.6832 100.594 31.2176 100.768 31.7026C100.945 32.1877 101.215 32.5761 101.578 32.8679C101.945 33.1597 102.406 33.3056 102.962 33.3056ZM109.166 34.6069V25.5213H110.875V26.9646H110.97C111.135 26.4756 111.427 26.0911 111.845 25.8112C112.267 25.5272 112.744 25.3853 113.277 25.3853C113.387 25.3853 113.517 25.3892 113.667 25.3971C113.821 25.405 113.941 25.4148 114.028 25.4267V27.1184C113.957 27.0987 113.831 27.077 113.649 27.0533C113.468 27.0257 113.287 27.0119 113.105 27.0119C112.687 27.0119 112.314 27.1007 111.987 27.2781C111.664 27.4516 111.407 27.6941 111.218 28.0057C111.029 28.3132 110.934 28.6642 110.934 29.0586V34.6069H109.166ZM119.149 34.7903C118.254 34.7903 117.483 34.599 116.836 34.2165C116.193 33.8301 115.696 33.2879 115.345 32.5899C114.998 31.888 114.825 31.0658 114.825 30.1233C114.825 29.1926 114.998 28.3724 115.345 27.6626C115.696 26.9528 116.185 26.3987 116.812 26.0004C117.443 25.6022 118.181 25.403 119.025 25.403C119.537 25.403 120.034 25.4878 120.515 25.6574C120.996 25.8269 121.428 26.0931 121.811 26.4559C122.193 26.8187 122.495 27.2899 122.716 27.8696C122.937 28.4454 123.047 29.1453 123.047 29.9695V30.5965H115.825V29.2715H121.314C121.314 28.8062 121.219 28.3941 121.03 28.0352C120.841 27.6724 120.574 27.3865 120.231 27.1775C119.892 26.9685 119.494 26.864 119.036 26.864C118.54 26.864 118.106 26.9863 117.735 27.2308C117.368 27.4713 117.085 27.7868 116.883 28.1772C116.686 28.5637 116.588 28.9836 116.588 29.4371V30.4723C116.588 31.0796 116.694 31.5961 116.907 32.022C117.124 32.4479 117.426 32.7732 117.812 32.998C118.199 33.2189 118.65 33.3293 119.167 33.3293C119.502 33.3293 119.807 33.2819 120.083 33.1873C120.36 33.0887 120.598 32.9428 120.799 32.7496C121 32.5564 121.154 32.3178 121.261 32.0339L122.935 32.3355C122.8 32.8285 122.56 33.2603 122.213 33.6309C121.87 33.9977 121.438 34.2836 120.918 34.4886C120.401 34.6897 119.811 34.7903 119.149 34.7903Z" fill="#003553"/>
</svg>
