
<svg width="153" height="47" viewBox="0 0 153 47" fill="none" xmlns="http://www.w3.org/2000/svg">
<path d="M4.92328 0.604492H148.422C150.95 0.604492 152.992 2.66357 152.992 5.21437V41.7861C152.992 44.3369 150.95 46.396 148.422 46.396H4.92328C2.39454 46.396 0.353271 44.3369 0.353271 41.7861V5.21437C0.353271 2.66357 2.39454 0.604492 4.92328 0.604492Z" fill="white"/>
<path d="M25.9384 23.6402L14.1396 34.7387C13.5588 34.2225 13.2532 33.5342 13.2532 32.7886V15.4096C13.2532 14.664 13.5588 13.9757 14.1396 13.4595L25.9384 23.6402Z" fill="#2196F3"/>
<path d="M36.149 24.0989C36.149 25.1026 35.5683 25.9917 34.6207 26.4792L31.2583 28.2286L27.0707 24.6438L25.9397 23.6687L30.3413 19.5391L34.5901 21.7473C35.5683 22.2061 36.149 23.0952 36.149 24.0989Z" fill="#FFC107"/>
<path d="M25.9401 23.6402L14.1719 13.4595C14.3247 13.3161 14.5081 13.2014 14.7221 13.0866C15.6697 12.5418 16.8312 12.5418 17.8399 13.058L30.3723 19.5392L25.9401 23.6402Z" fill="#4CAF50"/>
<path d="M31.2253 28.257L17.8065 35.1971C17.348 35.4552 16.7977 35.5699 16.2781 35.5699C15.7279 35.5699 15.1777 35.4552 14.6886 35.1684C14.4747 35.025 14.2913 34.8816 14.1384 34.7382L25.9373 23.6685L27.0682 24.6435L31.2253 28.257Z" fill="#F44336"/>
<path d="M44.1171 11.4785V10.7576H48.4127V11.4785H46.6809V16.3081H45.8462V11.4785H44.1171ZM49.175 16.3081H48.286L50.2834 10.7576H51.251L53.2484 16.3081H52.3595L50.7903 11.7658H50.7469L49.175 16.3081ZM49.324 14.1345H52.2077V14.8392H49.324V14.1345ZM51.0992 10.1831H50.4596L50.4379 9.63018C50.6294 9.62114 50.765 9.59585 50.8445 9.55429C50.924 9.51093 50.9628 9.4486 50.961 9.36729C50.9628 9.26972 50.9077 9.20016 50.7957 9.1586C50.6855 9.11705 50.5509 9.09627 50.3919 9.09627L50.4162 8.64909C50.8264 8.64909 51.1372 8.71413 51.3486 8.84422C51.5618 8.97431 51.6675 9.14957 51.6656 9.37C51.6675 9.54887 51.6087 9.68077 51.4895 9.76569C51.372 9.8488 51.242 9.9012 51.0992 9.92288V10.1831ZM54.8874 10.7576V16.3081H54.0499V10.7576H54.8874ZM63.1271 10.4676H63.7965C63.7965 10.8272 63.7441 11.1307 63.6393 11.3783C63.5363 11.6258 63.3665 11.8146 63.1298 11.9447C62.8949 12.073 62.5796 12.1371 62.1839 12.1371V11.5788C62.4441 11.5788 62.6419 11.5364 62.7775 11.4514C62.9148 11.3647 63.0069 11.2391 63.0539 11.0747C63.1027 10.9085 63.1271 10.7061 63.1271 10.4676ZM61.6961 10.7576H62.5363V14.4083C62.5363 14.7967 62.445 15.1409 62.2625 15.4408C62.08 15.739 61.8235 15.9738 61.4928 16.1455C61.1622 16.3153 60.7746 16.4003 60.3302 16.4003C59.8875 16.4003 59.5008 16.3153 59.1702 16.1455C58.8395 15.9738 58.583 15.739 58.4005 15.4408C58.218 15.1409 58.1268 14.7967 58.1268 14.4083V10.7576H58.9642V14.3405C58.9642 14.5916 59.0193 14.8148 59.1295 15.0099C59.2416 15.2051 59.3996 15.3586 59.6038 15.4707C59.808 15.5809 60.0501 15.636 60.3302 15.636C60.612 15.636 60.855 15.5809 61.0592 15.4707C61.2652 15.3586 61.4224 15.2051 61.5308 15.0099C61.641 14.8148 61.6961 14.5916 61.6961 14.3405V10.7576ZM59.9968 10.202L60.631 8.95263H61.4847L60.6445 10.202H59.9968ZM69.225 10.7576V16.3081H68.4553L65.634 12.2374H65.5825V16.3081H64.7451V10.7576H65.5202L68.3442 14.8338H68.3957V10.7576H69.225ZM74.203 12.5111C74.1506 12.3467 74.0801 12.1994 73.9916 12.0694C73.9049 11.9375 73.801 11.8254 73.6799 11.7333C73.5589 11.6393 73.4206 11.568 73.2652 11.5192C73.1117 11.4704 72.9427 11.446 72.7584 11.446C72.4459 11.446 72.164 11.5264 71.9129 11.6872C71.6617 11.848 71.463 12.0838 71.3166 12.3946C71.1721 12.7035 71.0998 13.0821 71.0998 13.5302C71.0998 13.98 71.173 14.3604 71.3193 14.6711C71.4657 14.9819 71.6662 15.2177 71.921 15.3785C72.1757 15.5393 72.4657 15.6197 72.791 15.6197C73.0927 15.6197 73.3556 15.5583 73.5796 15.4354C73.8055 15.3126 73.9798 15.1391 74.1027 14.9151C74.2274 14.6892 74.2897 14.4236 74.2897 14.1183L74.5065 14.1589H72.9183V13.4678H75.1V14.0993C75.1 14.5654 75.0007 14.9702 74.8019 15.3135C74.605 15.6549 74.3322 15.9187 73.9834 16.1048C73.6365 16.2909 73.239 16.384 72.791 16.384C72.2887 16.384 71.8478 16.2684 71.4684 16.0371C71.0908 15.8058 70.7963 15.4779 70.5849 15.0533C70.3735 14.6269 70.2678 14.121 70.2678 13.5356C70.2678 13.0929 70.3292 12.6954 70.4521 12.3431C70.5749 11.9908 70.7475 11.6917 70.9697 11.446C71.1938 11.1985 71.4566 11.0097 71.7584 10.8796C72.0619 10.7477 72.3935 10.6817 72.753 10.6817C73.0529 10.6817 73.3321 10.726 73.5905 10.8145C73.8506 10.9031 74.0819 11.0286 74.2843 11.1913C74.4884 11.3539 74.6574 11.5472 74.7911 11.7712C74.9248 11.9935 75.0151 12.2401 75.0621 12.5111H74.203ZM79.9798 16.3081H78.1829V10.7576H80.0367C80.5805 10.7576 81.0476 10.8687 81.4378 11.091C81.8281 11.3114 82.1271 11.6285 82.3349 12.0423C82.5445 12.4542 82.6493 12.9484 82.6493 13.5247C82.6493 14.1029 82.5436 14.5998 82.3322 15.0153C82.1226 15.4309 81.8191 15.7507 81.4216 15.9748C81.0241 16.197 80.5435 16.3081 79.9798 16.3081ZM79.0204 15.5764H79.9337C80.3565 15.5764 80.7079 15.4969 80.988 15.3379C81.268 15.177 81.4776 14.9449 81.6167 14.6413C81.7558 14.336 81.8254 13.9638 81.8254 13.5247C81.8254 13.0893 81.7558 12.7198 81.6167 12.4163C81.4794 12.1127 81.2743 11.8824 81.0015 11.7252C80.7287 11.568 80.3899 11.4894 79.9852 11.4894H79.0204V15.5764ZM87.26 10.7576H88.1002V14.4083C88.1002 14.7967 88.0089 15.1409 87.8265 15.4408C87.644 15.739 87.3874 15.9738 87.0568 16.1455C86.7261 16.3153 86.3386 16.4003 85.8941 16.4003C85.4514 16.4003 85.0648 16.3153 84.7341 16.1455C84.4035 15.9738 84.1469 15.739 83.9644 15.4408C83.7819 15.1409 83.6907 14.7967 83.6907 14.4083V10.7576H84.5282V14.3405C84.5282 14.5916 84.5833 14.8148 84.6935 15.0099C84.8055 15.2051 84.9636 15.3586 85.1678 15.4707C85.3719 15.5809 85.614 15.636 85.8941 15.636C86.176 15.636 86.419 15.5809 86.6231 15.4707C86.8291 15.3586 86.9863 15.2051 87.0947 15.0099C87.2049 14.8148 87.26 14.5916 87.26 14.3405V10.7576ZM85.8941 17.7987C85.755 17.7987 85.6348 17.7517 85.5336 17.6578C85.4325 17.5638 85.3819 17.45 85.3819 17.3163C85.3819 17.1826 85.4325 17.0688 85.5336 16.9748C85.6348 16.8809 85.755 16.8339 85.8941 16.8339C86.035 16.8339 86.1552 16.8809 86.2545 16.9748C86.3557 17.0688 86.4063 17.1826 86.4063 17.3163C86.4063 17.45 86.3557 17.5638 86.2545 17.6578C86.1552 17.7517 86.035 17.7987 85.8941 17.7987ZM93.7977 10.7576V16.3081H93.028L90.2067 12.2374H90.1552V16.3081H89.3177V10.7576H90.0929L92.9169 14.8338H92.9684V10.7576H93.7977ZM98.7757 12.5111C98.7233 12.3467 98.6528 12.1994 98.5643 12.0694C98.4775 11.9375 98.3736 11.8254 98.2526 11.7333C98.1315 11.6393 97.9933 11.568 97.8379 11.5192C97.6844 11.4704 97.5154 11.446 97.3311 11.446C97.0185 11.446 96.7367 11.5264 96.4855 11.6872C96.2344 11.848 96.0356 12.0838 95.8893 12.3946C95.7448 12.7035 95.6725 13.0821 95.6725 13.5302C95.6725 13.98 95.7457 14.3604 95.892 14.6711C96.0384 14.9819 96.2389 15.2177 96.4937 15.3785C96.7484 15.5393 97.0384 15.6197 97.3636 15.6197C97.6654 15.6197 97.9283 15.5583 98.1523 15.4354C98.3782 15.3126 98.5525 15.1391 98.6754 14.9151C98.8001 14.6892 98.8624 14.4236 98.8624 14.1183L99.0792 14.1589H97.491V13.4678H99.6727V14.0993C99.6727 14.5654 99.5734 14.9702 99.3746 15.3135C99.1777 15.6549 98.9048 15.9187 98.5561 16.1048C98.2092 16.2909 97.8117 16.384 97.3636 16.384C96.8614 16.384 96.4205 16.2684 96.0411 16.0371C95.6634 15.8058 95.3689 15.4779 95.1575 15.0533C94.9461 14.6269 94.8405 14.121 94.8405 13.5356C94.8405 13.0929 94.9019 12.6954 95.0247 12.3431C95.1476 11.9908 95.3202 11.6917 95.5424 11.446C95.7664 11.1985 96.0293 11.0097 96.3311 10.8796C96.6346 10.7477 96.9662 10.6817 97.3257 10.6817C97.6256 10.6817 97.9048 10.726 98.1632 10.8145C98.4233 10.9031 98.6546 11.0286 98.857 11.1913C99.0611 11.3539 99.2301 11.5472 99.3638 11.7712C99.4975 11.9935 99.5878 12.2401 99.6348 12.5111H98.7757Z" fill="#003553"/>
<path d="M53.3103 26.649C53.1959 26.2901 53.0421 25.9687 52.8489 25.6848C52.6596 25.3969 52.4328 25.1524 52.1686 24.9513C51.9044 24.7463 51.6028 24.5905 51.2636 24.484C50.9284 24.3776 50.5597 24.3243 50.1575 24.3243C49.4753 24.3243 48.8601 24.4998 48.312 24.8508C47.7639 25.2017 47.3301 25.7163 47.0107 26.3946C46.6952 27.0689 46.5374 27.8951 46.5374 28.873C46.5374 29.855 46.6972 30.685 47.0166 31.3633C47.336 32.0416 47.7737 32.5562 48.3297 32.9072C48.8858 33.2581 49.5187 33.4336 50.2285 33.4336C50.887 33.4336 51.4608 33.2995 51.9498 33.0314C52.4427 32.7632 52.8232 32.3846 53.0914 31.8957C53.3635 31.4027 53.4995 30.8231 53.4995 30.1566L53.9728 30.2453H50.5065V28.737H55.2682V30.1152C55.2682 31.1326 55.0513 32.0159 54.6175 32.7652C54.1877 33.5105 53.5922 34.0862 52.8311 34.4924C52.074 34.8986 51.2064 35.1017 50.2285 35.1017C49.1322 35.1017 48.17 34.8493 47.3419 34.3445C46.5177 33.8398 45.875 33.124 45.4136 32.1973C44.9522 31.2667 44.7215 30.1625 44.7215 28.8849C44.7215 27.9187 44.8556 27.0512 45.1237 26.2822C45.3919 25.5133 45.7685 24.8606 46.2535 24.3243C46.7425 23.7841 47.3163 23.372 47.9748 23.0881C48.6373 22.8002 49.3609 22.6563 50.1457 22.6563C50.8003 22.6563 51.4095 22.7529 51.9734 22.9461C52.5413 23.1393 53.046 23.4134 53.4877 23.7683C53.9333 24.1232 54.302 24.5451 54.5938 25.0341C54.8857 25.5192 55.0828 26.0574 55.1854 26.649H53.3103ZM61.2735 35.1194C60.4217 35.1194 59.6784 34.9242 59.0435 34.5338C58.4086 34.1434 57.9157 33.5972 57.5647 32.8953C57.2137 32.1934 57.0383 31.3732 57.0383 30.4346C57.0383 29.4922 57.2137 28.668 57.5647 27.9621C57.9157 27.2562 58.4086 26.7081 59.0435 26.3177C59.6784 25.9273 60.4217 25.7321 61.2735 25.7321C62.1253 25.7321 62.8686 25.9273 63.5035 26.3177C64.1384 26.7081 64.6313 27.2562 64.9823 27.9621C65.3332 28.668 65.5087 29.4922 65.5087 30.4346C65.5087 31.3732 65.3332 32.1934 64.9823 32.8953C64.6313 33.5972 64.1384 34.1434 63.5035 34.5338C62.8686 34.9242 62.1253 35.1194 61.2735 35.1194ZM61.2794 33.6347C61.8315 33.6347 62.2889 33.4888 62.6517 33.197C63.0145 32.9052 63.2827 32.5168 63.4562 32.0317C63.6336 31.5467 63.7223 31.0123 63.7223 30.4287C63.7223 29.849 63.6336 29.3167 63.4562 28.8316C63.2827 28.3427 63.0145 27.9503 62.6517 27.6545C62.2889 27.3588 61.8315 27.2109 61.2794 27.2109C60.7234 27.2109 60.262 27.3588 59.8953 27.6545C59.5325 27.9503 59.2623 28.3427 59.0849 28.8316C58.9114 29.3167 58.8246 29.849 58.8246 30.4287C58.8246 31.0123 58.9114 31.5467 59.0849 32.0317C59.2623 32.5168 59.5325 32.9052 59.8953 33.197C60.262 33.4888 60.7234 33.6347 61.2794 33.6347ZM71.31 35.1194C70.4582 35.1194 69.7148 34.9242 69.08 34.5338C68.4451 34.1434 67.9521 33.5972 67.6012 32.8953C67.2502 32.1934 67.0747 31.3732 67.0747 30.4346C67.0747 29.4922 67.2502 28.668 67.6012 27.9621C67.9521 27.2562 68.4451 26.7081 69.08 26.3177C69.7148 25.9273 70.4582 25.7321 71.31 25.7321C72.1617 25.7321 72.9051 25.9273 73.54 26.3177C74.1748 26.7081 74.6678 27.2562 75.0187 27.9621C75.3697 28.668 75.5452 29.4922 75.5452 30.4346C75.5452 31.3732 75.3697 32.1934 75.0187 32.8953C74.6678 33.5972 74.1748 34.1434 73.54 34.5338C72.9051 34.9242 72.1617 35.1194 71.31 35.1194ZM71.3159 33.6347C71.8679 33.6347 72.3254 33.4888 72.6882 33.197C73.051 32.9052 73.3191 32.5168 73.4926 32.0317C73.6701 31.5467 73.7588 31.0123 73.7588 30.4287C73.7588 29.849 73.6701 29.3167 73.4926 28.8316C73.3191 28.3427 73.051 27.9503 72.6882 27.6545C72.3254 27.3588 71.8679 27.2109 71.3159 27.2109C70.7599 27.2109 70.2985 27.3588 69.9317 27.6545C69.5689 27.9503 69.2988 28.3427 69.1214 28.8316C68.9479 29.3167 68.8611 29.849 68.8611 30.4287C68.8611 31.0123 68.9479 31.5467 69.1214 32.0317C69.2988 32.5168 69.5689 32.9052 69.9317 33.197C70.2985 33.4888 70.7599 33.6347 71.3159 33.6347ZM81.3287 38.5324C80.607 38.5324 79.986 38.4378 79.4654 38.2485C78.9488 38.0592 78.5269 37.8088 78.1996 37.4973C77.8723 37.1858 77.6278 36.8446 77.4661 36.474L78.9863 35.847C79.0928 36.0205 79.2347 36.2038 79.4122 36.3971C79.5936 36.5942 79.8381 36.7618 80.1457 36.8999C80.4572 37.0379 80.8574 37.1069 81.3464 37.1069C82.0168 37.1069 82.5709 36.9432 83.0086 36.6159C83.4463 36.2926 83.6652 35.776 83.6652 35.0662V33.2798H83.5528C83.4463 33.473 83.2925 33.6879 83.0914 33.9246C82.8942 34.1612 82.6221 34.3662 82.2751 34.5397C81.9281 34.7132 81.4766 34.8 80.9205 34.8C80.2028 34.8 79.5561 34.6324 78.9804 34.2972C78.4086 33.9581 77.9551 33.4592 77.6199 32.8007C77.2887 32.1382 77.123 31.3239 77.123 30.3577C77.123 29.3916 77.2867 28.5635 77.614 27.8734C77.9452 27.1833 78.3987 26.6549 78.9745 26.2881C79.5502 25.9175 80.2028 25.7321 80.9324 25.7321C81.4963 25.7321 81.9517 25.8268 82.2988 26.016C82.6458 26.2014 82.9159 26.4183 83.1091 26.6667C83.3063 26.9151 83.4581 27.134 83.5646 27.3233H83.6947V25.8504H85.4279V35.1371C85.4279 35.9179 85.2465 36.5587 84.8837 37.0596C84.5209 37.5604 84.0299 37.9311 83.4108 38.1716C82.7956 38.4122 82.1016 38.5324 81.3287 38.5324ZM81.3109 33.333C81.8196 33.333 82.2495 33.2147 82.6004 32.9781C82.9553 32.7376 83.2235 32.3945 83.4049 31.9489C83.5902 31.4994 83.6829 30.9611 83.6829 30.3341C83.6829 29.7228 83.5922 29.1846 83.4108 28.7192C83.2294 28.2539 82.9632 27.8911 82.6123 27.6309C82.2613 27.3667 81.8275 27.2346 81.3109 27.2346C80.7786 27.2346 80.3349 27.3726 79.98 27.6486C79.6251 27.9207 79.357 28.2914 79.1756 28.7607C78.9981 29.2299 78.9094 29.7544 78.9094 30.3341C78.9094 30.9295 79.0001 31.452 79.1815 31.9016C79.3629 32.3511 79.631 32.7021 79.986 32.9545C80.3448 33.2068 80.7865 33.333 81.3109 33.333ZM89.5684 22.8219V34.936H87.7998V22.8219H89.5684ZM95.8636 35.1194C94.9684 35.1194 94.1975 34.9281 93.5508 34.5456C92.908 34.1592 92.4111 33.617 92.0602 32.919C91.7132 32.2171 91.5397 31.3949 91.5397 30.4524C91.5397 29.5217 91.7132 28.7015 92.0602 27.9917C92.4111 27.2819 92.9001 26.7278 93.5271 26.3295C94.1581 25.9313 94.8955 25.7321 95.7394 25.7321C96.252 25.7321 96.7489 25.8169 97.23 25.9865C97.7111 26.156 98.1429 26.4222 98.5254 26.785C98.9079 27.1478 99.2096 27.619 99.4304 28.1987C99.6512 28.7745 99.7617 29.4744 99.7617 30.2986V30.9256H92.5393V29.6006H98.0285C98.0285 29.1353 97.9339 28.7232 97.7446 28.3643C97.5553 28.0015 97.2891 27.7156 96.9461 27.5066C96.6069 27.2976 96.2087 27.1931 95.7512 27.1931C95.2543 27.1931 94.8206 27.3154 94.4499 27.5599C94.0832 27.8004 93.7992 28.1159 93.5981 28.5063C93.4009 28.8928 93.3024 29.3127 93.3024 29.7662V30.8014C93.3024 31.4087 93.4088 31.9252 93.6218 32.3511C93.8387 32.777 94.1403 33.1023 94.5268 33.3271C94.9132 33.548 95.3648 33.6584 95.8813 33.6584C96.2165 33.6584 96.5222 33.611 96.7982 33.5164C97.0742 33.4178 97.3128 33.2719 97.5139 33.0787C97.715 32.8855 97.8688 32.6469 97.9753 32.363L99.6493 32.6646C99.5152 33.1576 99.2747 33.5894 98.9276 33.96C98.5846 34.3268 98.1528 34.6127 97.6322 34.8177C97.1156 35.0188 96.5261 35.1194 95.8636 35.1194ZM106.274 34.936V22.8219H110.592C111.535 22.8219 112.316 22.9934 112.935 23.3365C113.554 23.6796 114.017 24.1488 114.325 24.7443C114.632 25.3358 114.786 26.0022 114.786 26.7436C114.786 27.4889 114.63 28.1593 114.319 28.7547C114.011 29.3463 113.546 29.8155 112.923 30.1625C112.304 30.5056 111.525 30.6772 110.586 30.6772H107.617V29.1274H110.421C111.016 29.1274 111.499 29.0249 111.87 28.8198C112.241 28.6108 112.513 28.3269 112.686 27.968C112.86 27.6092 112.946 27.201 112.946 26.7436C112.946 26.2862 112.86 25.88 112.686 25.5251C112.513 25.1702 112.239 24.8922 111.864 24.6911C111.493 24.4899 111.004 24.3894 110.397 24.3894H108.102V34.936H106.274ZM118.555 22.8219V34.936H116.787V22.8219H118.555ZM123.579 35.1371C123.003 35.1371 122.483 35.0307 122.017 34.8177C121.552 34.6008 121.183 34.2873 120.911 33.8772C120.643 33.4671 120.509 32.9643 120.509 32.3689C120.509 31.8562 120.608 31.4343 120.805 31.103C121.002 30.7718 121.268 30.5096 121.603 30.3163C121.938 30.1231 122.313 29.9772 122.727 29.8786C123.141 29.78 123.563 29.7051 123.993 29.6538C124.537 29.5907 124.979 29.5395 125.318 29.5C125.657 29.4567 125.904 29.3877 126.057 29.293C126.211 29.1984 126.288 29.0446 126.288 28.8316V28.7902C126.288 28.2736 126.142 27.8734 125.85 27.5895C125.562 27.3055 125.133 27.1636 124.561 27.1636C123.965 27.1636 123.496 27.2957 123.153 27.5599C122.814 27.8202 122.579 28.11 122.449 28.4294L120.787 28.0508C120.984 27.4988 121.272 27.0532 121.651 26.714C122.033 26.3709 122.473 26.1225 122.97 25.9687C123.466 25.811 123.989 25.7321 124.537 25.7321C124.9 25.7321 125.284 25.7755 125.691 25.8622C126.101 25.9451 126.483 26.0989 126.838 26.3236C127.197 26.5484 127.491 26.8698 127.719 27.2878C127.948 27.7018 128.063 28.2401 128.063 28.9026V34.936H126.335V33.6939H126.264C126.15 33.9226 125.978 34.1474 125.75 34.3682C125.521 34.589 125.227 34.7724 124.868 34.9183C124.51 35.0642 124.08 35.1371 123.579 35.1371ZM123.963 33.7175C124.452 33.7175 124.87 33.6209 125.217 33.4277C125.568 33.2345 125.835 32.9821 126.016 32.6705C126.201 32.3551 126.294 32.0179 126.294 31.6591V30.4879C126.231 30.551 126.109 30.6101 125.927 30.6653C125.75 30.7166 125.547 30.7619 125.318 30.8014C125.089 30.8369 124.866 30.8704 124.65 30.9019C124.433 30.9295 124.251 30.9532 124.105 30.9729C123.762 31.0163 123.449 31.0892 123.165 31.1918C122.885 31.2943 122.66 31.4422 122.491 31.6354C122.325 31.8247 122.242 32.0771 122.242 32.3925C122.242 32.8303 122.404 33.1615 122.727 33.3863C123.05 33.6071 123.463 33.7175 123.963 33.7175ZM131.211 38.3431C130.947 38.3431 130.706 38.3215 130.489 38.2781C130.272 38.2386 130.111 38.1953 130.004 38.1479L130.43 36.6987C130.753 36.7855 131.041 36.823 131.294 36.8111C131.546 36.7993 131.769 36.7047 131.962 36.5272C132.159 36.3497 132.333 36.0599 132.483 35.6577L132.701 35.0543L129.377 25.8504H131.27L133.571 32.9012H133.666L135.967 25.8504H137.865L134.121 36.1486C133.948 36.6218 133.727 37.0221 133.459 37.3494C133.19 37.6806 132.871 37.9291 132.5 38.0947C132.13 38.2603 131.7 38.3431 131.211 38.3431Z" fill="#003553"/>
</svg>
